# xmcd
#
# Track frame offsets:
#	182
#	24497
#	39840
#	56665
#	71787
#	90142
#	110217
#	128682
#	148712
#	166335
#	185602
#	203880
#
# Disc length: 2914 seconds
#
# Revision: 0
# Processed by: cddbd v1.4PL0 Copyright (c) Steve Scherf et al.
# Submitted via: audiograbber 1.80.04
#
DISCID=a50b600c
DTITLE=IVA ZANICCHI - I GRANDI SUCCESSI ORIGINALI VOL 2
DYEAR=1900
DGENRE=POP
TTITLE0=UN FIUME AMARO
TTITLE1=UNA STORIA DI MEZZANOTTE
TTITLE2=LA RIVA BIANCA LA RIVA NERA
TTITLE3=COM'E' TRISTE VENEZIA
TTITLE4=CORAGGIO E PAURA
TTITLE5=ED IO TRA DI VOI
TTITLE6=TESTARDA IO
TTITLE7=AMARLO IO
TTITLE8=CIAO CARA, COME STAI
TTITLE9=MI HA STREGATO IL VISO TUO
TTITLE10=ACCAREZZAME
TTITLE11=JEZEBEL
EXTD=
EXTT0=\n
EXTT1=
EXTT2=
EXTT3=
EXTT4=
EXTT5=
EXTT6=
EXTT7=
EXTT8=
EXTT9=
EXTT10=
EXTT11=
PLAYORDER=
